<svg width="65" height="69" viewBox="0 0 95 99" fill="none" xmlns="http://www.w3.org/2000/svg">
<circle cx="51" cy="50" r="41.5" stroke="#9A9489"/>
<path fill-rule="evenodd" clip-rule="evenodd" d="M32.6741 3.79344C32.9511 3.78234 33.2275 3.82541 33.4873 3.9201C33.7589 4.01505 34.0084 4.16205 34.2212 4.35247C34.434 4.54289 34.6058 4.7729 34.7265 5.02904C35.6705 7.01875 36.9504 11.2067 34.8523 17.1262C34.014 19.4915 32.9131 21.4019 31.765 22.9486C33.6943 21.92 36.1065 20.9867 39.0819 20.5188C45.3775 19.5289 49.4031 21.4848 51.2444 22.7406C51.4817 22.9008 51.6839 23.1057 51.8392 23.3433C51.9945 23.5809 52.0998 23.8463 52.1489 24.1241C52.1992 24.3907 52.1945 24.6644 52.1352 24.9292C52.076 25.194 51.9633 25.4445 51.8037 25.6661C50.8706 26.9334 49.7051 28.0202 48.3662 28.8714C51.6109 31.1475 53.1443 33.7856 53.8353 35.4503C54.0428 35.9445 54.0546 36.4964 53.8684 36.9983C53.6821 37.5002 53.3112 37.9162 52.8281 38.1649C50.9856 39.0943 48.9655 39.6392 46.896 39.7651C47.6975 42.3742 47.8081 45.1393 47.2174 47.8009C47.1141 48.2503 46.8627 48.6539 46.502 48.9499C46.1412 49.2459 45.691 49.4178 45.2205 49.4392C42.4371 49.5458 39.6713 48.9592 37.1826 47.7343C36.6968 49.7054 35.7971 51.556 34.5408 53.1685C34.2064 53.5906 33.723 53.8755 33.1851 53.9677C32.6472 54.0599 32.0934 53.9527 31.6318 53.6671C30.0797 52.718 27.6889 50.7834 25.9552 47.2583C24.8644 48.4014 23.5659 49.3362 22.1257 50.0152C21.8748 50.1304 21.6029 50.1954 21.3259 50.2065C21.0489 50.2176 20.7725 50.1745 20.5127 50.0798C20.2411 49.9849 19.9916 49.8379 19.7788 49.6474C19.566 49.457 19.3942 49.227 19.2735 48.9709C18.3295 46.9812 17.0496 42.7933 19.1477 36.8737C19.986 34.5084 21.0869 32.598 22.235 31.0513C20.3057 32.0799 17.8935 33.0132 14.918 33.4811C8.62253 34.471 4.59689 32.5152 2.75561 31.2593C2.51834 31.0991 2.31612 30.8942 2.16081 30.6566C2.00549 30.419 1.9002 30.1536 1.85109 29.8758C1.80083 29.6092 1.80547 29.3355 1.86474 29.0707C1.92401 28.8059 2.03672 28.5554 2.19626 28.3338C3.12935 27.0665 4.29493 25.9797 5.63382 25.1285C2.3891 22.8524 0.855665 20.2143 0.16464 18.5496C-0.0428558 18.0555 -0.0546261 17.5036 0.131626 17.0016C0.317878 16.4997 0.688782 16.0837 1.17193 15.835C3.01442 14.9056 5.03446 14.3607 7.10403 14.2349C6.30252 11.6257 6.19192 8.86063 6.78261 6.199C6.88591 5.74966 7.13724 5.34599 7.498 5.05001C7.85875 4.75403 8.30897 4.58212 8.77949 4.56068C11.5629 4.45408 14.3287 5.04074 16.8174 6.26559C17.3032 4.29451 18.2028 2.44395 19.4592 0.831372C19.7936 0.409339 20.277 0.124417 20.8149 0.0322336C21.3527 -0.0599499 21.9066 0.0472194 22.3682 0.332821C23.9203 1.28188 26.3111 3.21654 28.0448 6.74157C29.1356 5.59852 30.4341 4.66371 31.8743 3.98471C32.1252 3.86956 32.3971 3.80453 32.6741 3.79344ZM21.0713 1.41781C20.8846 1.4477 20.7161 1.54475 20.5989 1.6899C19.3887 3.24791 18.5454 5.04819 18.1292 6.96218C20.0664 8.12138 21.7929 9.58758 23.2382 11.3007C26.727 15.3661 27.7544 19.3093 27.9029 22.286C28.6279 19.561 29.0286 16.0023 28.3618 12.3558C27.1667 5.809 23.6124 2.76562 21.6079 1.52835C21.4494 1.42734 21.258 1.38792 21.0713 1.41781ZM1.49572 17.4848C1.43216 17.658 1.43693 17.8482 1.5091 18.0183C2.39588 20.161 4.84811 24.1086 11.2394 26.3991C14.7964 27.6744 18.4503 27.9065 21.3208 27.6816C18.352 27.0258 14.5576 25.3504 11.0688 21.285C9.59426 19.5959 8.41731 17.6788 7.58614 15.6122C5.58754 15.6835 3.62989 16.1852 1.85283 17.0815C1.68661 17.1678 1.55928 17.3116 1.49572 17.4848ZM3.59282 30.1067C5.25124 31.2429 8.90717 33.0041 14.7008 32.0939L14.6927 32.0844C17.7062 31.6327 20.5826 30.5448 23.1222 28.8964C19.8675 29.3904 15.2637 29.3475 10.7452 27.729C9.43426 27.264 8.17072 26.6797 6.97122 25.9839C5.56475 26.7841 4.34517 27.8632 3.39088 29.152C3.34101 29.2217 3.30604 29.3006 3.28804 29.3839C3.27004 29.4672 3.26939 29.5532 3.28612 29.6367C3.30197 29.7313 3.33734 29.8217 3.39007 29.9025C3.4428 29.9833 3.51178 30.0528 3.59282 30.1067ZM21.7355 26.3085C23.1338 26.6202 24.5734 26.715 26.0016 26.5894L25.9865 26.5856C26.361 25.2322 26.5156 23.8296 26.4444 22.429C26.2886 18.8013 24.8382 15.362 22.1319 12.2084C16.9943 6.22187 11.1336 5.843 8.8534 5.95938C8.69656 5.96724 8.54665 6.02488 8.42637 6.12356C8.30609 6.22224 8.222 6.35659 8.18685 6.50624C7.67367 8.68171 7.03757 14.3908 12.1751 20.3773C14.8814 23.5309 18.0937 25.5248 21.7355 26.3085ZM33.5011 16.6693C35.424 11.2486 34.2821 7.42472 33.4285 5.62825L33.4135 5.62445C33.3347 5.45586 33.1913 5.32427 33.0142 5.25807C32.933 5.22745 32.8463 5.21315 32.7592 5.21602C32.6722 5.21888 32.5867 5.23887 32.5078 5.27477C31.0435 5.96912 29.7447 6.95619 28.6952 8.1722C29.1877 9.44803 29.5568 10.7662 29.7975 12.1093C30.6455 16.7414 29.8868 21.1817 28.8241 24.2299C30.9258 22.0717 32.5218 19.4918 33.5011 16.6693ZM32.9287 52.5821C33.1154 52.5522 33.2839 52.4552 33.4011 52.31C34.6113 50.752 35.4546 48.9517 35.8707 47.0377C33.9336 45.8785 32.2071 44.4123 30.7618 42.6992C27.273 38.6338 26.2456 34.6906 26.0971 31.7139C25.3721 34.4389 24.9714 37.9976 25.6382 41.6442C26.8332 48.1909 30.3876 51.2343 32.3921 52.4716C32.5506 52.5726 32.742 52.612 32.9287 52.5821ZM52.5043 36.5151C52.5678 36.3419 52.5631 36.1517 52.4909 35.9816C51.6041 33.8389 49.1519 29.8913 42.7606 27.6008C39.2036 26.3255 35.5497 26.0934 32.6792 26.3183C35.648 26.9741 39.4423 28.6495 42.9312 32.7149C44.4057 34.404 45.5827 36.3212 46.4138 38.3877C48.4125 38.3164 50.3701 37.8147 52.1472 36.9184C52.3134 36.8321 52.4407 36.6883 52.5043 36.5151ZM50.4072 23.8932C48.7487 22.7571 45.0928 20.9958 39.2992 21.906L39.3073 21.9155C36.2938 22.3673 33.4174 23.4551 30.8778 25.1035C34.1325 24.6095 38.7363 24.6525 43.2548 26.2709C44.5657 26.736 45.8293 27.3202 47.0288 28.016C48.4352 27.2158 49.6548 26.1367 50.6091 24.848C50.659 24.7782 50.694 24.6993 50.7119 24.616C50.7299 24.5327 50.7306 24.4467 50.7139 24.3632C50.698 24.2686 50.6626 24.1782 50.6099 24.0974C50.5572 24.0166 50.4882 23.9471 50.4072 23.8932ZM32.2645 27.6914C30.8662 27.3797 29.4266 27.2849 27.9984 27.4105L28.0135 27.4143C27.6389 28.7677 27.4844 30.1704 27.5556 31.5709C27.7114 35.1986 29.1618 38.638 31.8681 41.7915C37.0057 47.778 42.8663 48.1569 45.1466 48.0405C45.3034 48.0327 45.4533 47.975 45.5736 47.8764C45.6939 47.7777 45.778 47.6433 45.8131 47.4937C46.3263 45.3182 46.9624 39.6091 41.8249 33.6226C39.1186 30.469 35.9063 28.4751 32.2645 27.6914ZM20.4988 37.3306C18.576 42.7513 19.7179 46.5752 20.5715 48.3717L20.5865 48.3755C20.6653 48.5441 20.8087 48.6756 20.9857 48.7418C21.067 48.7725 21.1537 48.7868 21.2407 48.7839C21.3278 48.781 21.4133 48.761 21.4922 48.7251C22.9564 48.0308 24.2553 47.0437 25.3048 45.8277C24.8123 44.5519 24.4432 43.2338 24.2025 41.8907C23.3545 37.2586 24.1132 32.8182 25.1759 29.77C23.0742 31.9282 21.4782 34.5081 20.4988 37.3306Z" fill="#AFBCB6"/>
<path fill-rule="evenodd" clip-rule="evenodd" d="M66.2201 94.1368C65.958 94.1962 65.6871 94.2008 65.4232 94.1505C65.148 94.1019 64.8849 93.9971 64.6494 93.842C64.4138 93.687 64.2105 93.4848 64.0514 93.2475C62.8096 91.4048 60.8698 87.4035 61.8521 81.0683C62.3687 77.7365 63.4542 75.1205 64.605 73.0959C62.9303 74.494 60.7641 75.8863 57.9585 76.8935C52.128 78.9867 47.9547 77.714 45.9838 76.7675C45.7301 76.6472 45.5021 76.4757 45.3132 76.2631C45.1244 76.0505 44.9784 75.8011 44.8838 75.5294C44.7901 75.2693 44.7475 74.9924 44.7584 74.715C44.7694 74.4377 44.8338 74.1654 44.9478 73.9142C45.6193 72.4737 46.5435 71.1749 47.6734 70.0836C44.1894 68.3521 42.2743 65.958 41.3295 64.3991C41.0468 63.9368 40.9407 63.3822 41.0319 62.8436C41.1232 62.305 41.4052 61.8209 41.823 61.486C43.4194 60.2283 45.2512 59.3275 47.2022 58.8406C45.9897 56.3485 45.409 53.5788 45.5145 50.7916C45.5358 50.3204 45.7059 49.8696 45.9989 49.5083C46.2919 49.1471 46.6915 48.8954 47.1363 48.792C49.771 48.2005 52.5081 48.3112 55.0908 49.1138C55.2151 47.0413 55.7545 45.0184 56.6748 43.1735C56.921 42.6897 57.3327 42.3183 57.8296 42.1318C58.3264 41.9453 58.8728 41.9571 59.3619 42.1649C61.0044 42.8522 63.6158 44.3877 65.8742 47.6416C66.7174 46.2991 67.7944 45.1304 69.0505 44.1951C69.2698 44.0354 69.5178 43.9225 69.7799 43.8632C70.042 43.8038 70.3129 43.7992 70.5768 43.8495C70.852 43.898 71.1151 44.0029 71.3507 44.158C71.5862 44.313 71.7895 44.5152 71.9486 44.7525C73.1904 46.5951 75.1302 50.5965 74.1479 56.9317C73.6313 60.2635 72.5458 62.8795 71.395 64.9041C73.0697 63.506 75.2359 62.1137 78.0415 61.1065C83.872 59.0133 88.0453 60.286 90.0162 61.2325C90.2699 61.3528 90.4979 61.5243 90.6868 61.7369C90.8757 61.9495 91.0216 62.1989 91.1162 62.4706C91.2099 62.7307 91.2526 63.0076 91.2416 63.285C91.2306 63.5623 91.1662 63.8346 91.0522 64.0858C90.3807 65.5263 89.4565 66.8251 88.3266 67.9164C91.8107 69.6479 93.7257 72.042 94.6705 73.6009C94.9533 74.0632 95.0593 74.6178 94.9681 75.1564C94.8768 75.695 94.5948 76.179 94.177 76.5139C92.5806 77.7717 90.7488 78.6725 88.7978 79.1594C90.0103 81.6515 90.591 84.4212 90.4855 87.2084C90.4642 87.6795 90.2941 88.1304 90.0011 88.4916C89.7081 88.8529 89.3085 89.1046 88.8637 89.208C86.229 89.7995 83.4919 89.6888 80.9092 88.8861C80.785 90.9586 80.2456 92.9815 79.3252 94.8264C79.079 95.3103 78.6673 95.6817 78.1704 95.8682C77.6736 96.0547 77.1273 96.0429 76.6381 95.8351C74.9956 95.1478 72.3842 93.6122 70.1258 90.3584C69.2826 91.7009 68.2056 92.8696 66.9495 93.8049C66.7302 93.9646 66.4822 94.0775 66.2201 94.1368ZM77.6878 94.5153C77.8606 94.4527 78.0045 94.3255 78.0913 94.1587C78.977 92.3769 79.4714 90.4145 79.5391 88.4117C77.4934 87.5794 75.5957 86.4008 73.9237 84.9242C69.8994 81.4306 68.2423 77.6322 67.5891 74.6557C67.3665 77.5302 67.5963 81.1891 68.8586 84.7511C71.123 91.1463 75.0341 93.5978 77.1573 94.4971C77.3258 94.5714 77.515 94.5779 77.6878 94.5153ZM93.5848 74.9063C93.6156 74.7205 93.5784 74.5295 93.4804 74.3705C92.2668 72.3636 89.2509 68.8085 82.7652 67.6097C79.1556 66.942 75.6329 67.3432 72.9355 68.0692C75.878 68.2144 79.7826 69.2444 83.8069 72.7381C85.5027 74.1853 86.9541 75.9142 88.1015 77.854C89.9943 77.4346 91.774 76.5881 93.3138 75.3751C93.4574 75.2592 93.554 75.092 93.5848 74.9063ZM89.4164 62.5405C87.6403 61.683 83.8529 60.5423 78.487 62.4678L78.4964 62.476C75.7017 63.4556 73.147 65.053 71.0097 67.1571C74.027 66.093 78.4226 65.3357 83.0076 66.1824C84.3371 66.4235 85.6419 66.793 86.9048 67.2862C88.1079 66.2346 89.0849 64.9341 89.7729 63.4684C89.8085 63.3893 89.8283 63.3037 89.8311 63.2166C89.8339 63.1294 89.8198 63.0426 89.7895 62.9612C89.7581 62.8686 89.7088 62.7835 89.6447 62.7112C89.5806 62.6389 89.5029 62.5808 89.4164 62.5405ZM72.7762 69.5262C71.3898 69.4549 70.0014 69.6096 68.6617 69.9847L68.6767 69.9859C68.5523 71.416 68.6462 72.8576 68.9547 74.2578C69.7268 77.8897 71.7005 81.1063 74.8221 83.8164C80.7481 88.961 86.3994 88.324 88.5529 87.8101C88.701 87.7749 88.834 87.6907 88.9317 87.5703C89.0293 87.4499 89.0864 87.2997 89.0942 87.1427C89.2094 84.8593 88.8343 78.9905 82.9084 73.8459C79.7868 71.1358 76.3822 69.6834 72.7762 69.5262ZM63.2185 81.2941C62.3175 87.0958 64.0632 90.754 65.1856 92.4174L65.2006 92.4187C65.3047 92.575 65.464 92.6828 65.6441 92.7188C65.7268 92.7355 65.8119 92.7349 65.8944 92.7168C65.9768 92.6988 66.0549 92.6638 66.124 92.6139C67.4003 91.6589 68.4686 90.4375 69.2599 89.0286C68.5712 87.8274 67.9929 86.5621 67.5325 85.2493C65.928 80.7249 65.888 76.1145 66.3769 72.8553C64.7446 75.3975 63.6668 78.2771 63.2185 81.2941ZM58.3122 43.4847C58.1394 43.5473 57.9955 43.6745 57.9087 43.8413C57.023 45.6231 56.5286 47.5855 56.461 49.5883C58.5066 50.4206 60.4043 51.5992 62.0764 53.0758C66.1006 56.5694 67.7577 60.3678 68.4109 63.3443C68.6335 60.4698 68.4038 56.8108 67.1414 53.2489C64.877 46.8537 60.9659 44.4022 58.8427 43.5029C58.6742 43.4286 58.485 43.4221 58.3122 43.4847ZM42.4152 63.0937C42.3844 63.2795 42.4216 63.4705 42.5196 63.6295C43.7332 65.6364 46.7491 69.1915 53.2348 70.3903C56.8444 71.058 60.3671 70.6568 63.0645 69.9308C60.122 69.7856 56.2174 68.7556 52.1931 65.2619C50.4973 63.8147 49.0459 62.0858 47.8985 60.146C46.0057 60.5654 44.226 61.4118 42.6862 62.6249C42.5426 62.7408 42.446 62.908 42.4152 63.0937ZM46.5837 75.4595C48.3597 76.317 52.1472 77.4576 57.513 75.5322L57.5036 75.524C60.2983 74.5444 62.853 72.947 64.9904 70.8428C61.973 71.907 57.5774 72.6642 52.9924 71.8176C51.6629 71.5765 50.3581 71.207 49.0952 70.7138C47.8921 71.7654 46.9151 73.0658 46.2271 74.5316C46.1915 74.6106 46.1717 74.6963 46.1689 74.7834C46.1661 74.8706 46.1802 74.9574 46.2105 75.0388C46.2419 75.1314 46.2912 75.2165 46.3553 75.2888C46.4195 75.3611 46.4971 75.4192 46.5837 75.4595ZM63.2238 68.4738C64.6102 68.5451 65.9986 68.3903 67.3383 68.0153L67.3233 68.0141C67.4477 66.584 67.3539 65.1424 67.0453 63.7422C66.2732 60.1103 64.2995 56.8937 61.1779 54.1836C55.2519 49.039 49.6006 49.676 47.4472 50.1898C47.299 50.225 47.166 50.3092 47.0683 50.4297C46.9707 50.5501 46.9136 50.7003 46.9058 50.8573C46.7906 53.1407 47.1657 59.0095 53.0916 64.1541C56.2133 66.8642 59.6178 68.3166 63.2238 68.4738ZM72.7815 56.7059C73.6825 50.9042 71.9368 47.246 70.8144 45.5825L70.7994 45.5813C70.6953 45.425 70.5361 45.3172 70.3559 45.2812C70.2732 45.2645 70.1881 45.2651 70.1056 45.2832C70.0232 45.3012 69.9451 45.3362 69.876 45.3861C68.5997 46.3411 67.5314 47.5625 66.7401 48.9714C67.4288 50.1726 68.0071 51.4379 68.4675 52.7506C70.072 57.2751 70.112 61.8855 69.6231 65.1447C71.2554 62.6025 72.3332 59.7229 72.7815 56.7059Z" fill="#C6AAAC"/>
<path d="M67.256 88.032V56.496C67.256 55.504 67 55.008 66.488 55.008L63.608 54.864L63.656 54.144C65.192 53.888 66.792 53.76 68.456 53.76C68.808 53.792 69.192 53.968 69.608 54.288C69.992 54.608 70.216 55.024 70.28 55.536C72.104 54.384 74.216 53.808 76.616 53.808C78.952 53.808 81.112 54.464 83.096 55.776C84.216 56.512 85.128 57.664 85.832 59.232C86.504 60.832 86.84 62.768 86.84 65.04C86.84 69.232 85.768 72.432 83.624 74.64C81.352 77.008 78.76 78.192 75.848 78.192C74.056 78.192 72.232 77.728 70.376 76.8V88.272C70.376 88.624 70.472 88.8 70.664 88.8L73.592 88.896L73.544 89.568C71.528 89.856 70.152 90 69.416 90C68.648 90 68.104 89.792 67.784 89.376C67.432 88.96 67.256 88.512 67.256 88.032ZM75.992 54.672C74.04 54.672 72.168 55.104 70.376 55.968V76.032C71.784 76.896 73.176 77.328 74.552 77.328C77.304 77.328 79.528 76.272 81.224 74.16C82.888 72.048 83.72 69.024 83.72 65.088C83.72 58.144 81.144 54.672 75.992 54.672ZM55.9231 65.04C55.9231 58.128 53.2351 54.672 47.8591 54.672C46.4511 54.672 44.9471 54.816 43.3471 55.104C41.7471 55.424 40.7231 55.712 40.2751 55.968L39.9391 55.488C40.6751 55.008 41.8911 54.608 43.5871 54.288C45.2511 53.968 46.7871 53.808 48.1951 53.808C49.5711 53.808 50.8191 53.952 51.9391 54.24C53.0271 54.528 54.1471 55.04 55.2991 55.776C56.4511 56.512 57.3631 57.664 58.0351 59.232C58.7071 60.8 59.0431 62.72 59.0431 64.992C59.0431 69.216 57.9551 72.448 55.7791 74.688C53.5071 77.024 50.8671 78.192 47.8591 78.192C44.8511 78.192 42.5631 77.36 40.9951 75.696C39.3951 74.032 38.5951 71.696 38.5951 68.688C38.5951 68.048 38.6431 67.36 38.7391 66.624H55.8751C55.9071 66.272 55.9231 65.744 55.9231 65.04ZM41.4271 69.024C41.4271 71.424 41.9551 73.376 43.0111 74.88C44.0671 76.416 45.5071 77.184 47.3311 77.184C49.6991 77.184 51.6991 76.144 53.3311 74.064C54.6431 72.432 55.4591 70.256 55.7791 67.536H41.4751C41.4431 67.888 41.4271 68.384 41.4271 69.024ZM9.61512 78C9.61512 77.968 9.59912 77.728 9.56712 77.28L13.4071 76.848L22.6231 54H25.5031L33.8551 76.464C34.0471 76.752 34.2871 76.928 34.5751 76.992L37.0711 77.232L37.1191 77.952L26.9911 78C26.9911 77.968 26.9751 77.728 26.9431 77.28L30.4951 77.04L22.9591 55.008L15.0871 76.272C14.9911 76.432 15.0551 76.576 15.2791 76.704C15.4711 76.864 15.6791 76.96 15.9031 76.992L18.3991 77.232L18.4471 77.952L9.61512 78Z" fill="#884D50"/>
<path d="M17.92 46.048L17.968 45.376L20.464 45.04C20.752 45.008 20.896 44.784 20.896 44.368V22.864H18.448L18.832 22.48L20.896 22.048V16.192C20.896 13.984 21.616 12.4 23.056 11.44C24.496 10.448 26.176 9.952 28.096 9.952C29.376 9.952 30.464 10.128 31.36 10.48L31.216 10.816C30.448 10.72 29.776 10.672 29.2 10.672C28.656 10.672 28.112 10.752 27.568 10.912C27.056 11.072 26.512 11.36 25.936 11.776C24.656 12.704 24.016 14.544 24.016 17.296V22H29.824V22.864H24.016V45.04L28.096 45.28C28.096 45.312 28.08 45.552 28.048 46L17.92 46.048ZM34.7331 34.96C34.7331 41.872 37.4211 45.328 42.7971 45.328C44.2051 45.328 45.7091 45.184 47.3091 44.896C48.9091 44.576 49.9331 44.288 50.3811 44.032L50.7171 44.512C49.9811 44.992 48.7651 45.392 47.0691 45.712C45.4051 46.032 43.8691 46.192 42.4611 46.192C41.0851 46.192 39.8371 46.048 38.7171 45.76C37.6291 45.472 36.5091 44.96 35.3571 44.224C34.2051 43.488 33.2931 42.336 32.6211 40.768C31.9491 39.2 31.6131 37.28 31.6131 35.008C31.6131 30.784 32.7011 27.552 34.8771 25.312C37.1491 22.976 39.7891 21.808 42.7971 21.808C45.8051 21.808 48.0931 22.64 49.6611 24.304C51.2611 25.968 52.0611 28.304 52.0611 31.312C52.0611 31.952 52.0131 32.64 51.9171 33.376H34.7811C34.7491 33.728 34.7331 34.256 34.7331 34.96ZM49.2291 30.976C49.2291 28.576 48.7011 26.624 47.6451 25.12C46.5891 23.584 45.1491 22.816 43.3251 22.816C40.9571 22.816 38.9571 23.856 37.3251 25.936C36.0131 27.568 35.1971 29.744 34.8771 32.464H49.1811C49.2131 32.112 49.2291 31.616 49.2291 30.976ZM75.4784 11.968V43.504C75.4784 44.496 75.7344 44.992 76.2464 44.992L79.1264 45.136L79.0784 45.856C77.5424 46.112 75.9424 46.24 74.2784 46.24C73.9264 46.208 73.5424 46.032 73.1264 45.712C72.7424 45.392 72.5184 44.976 72.4544 44.464C70.6304 45.616 68.5184 46.192 66.1184 46.192C63.7824 46.192 61.6224 45.536 59.6384 44.224C58.5184 43.488 57.6064 42.336 56.9024 40.768C56.2304 39.168 55.8944 37.232 55.8944 34.96C55.8944 30.768 56.9664 27.568 59.1104 25.36C61.3824 22.992 63.9744 21.808 66.8864 21.808C68.6784 21.808 70.5024 22.272 72.3584 23.2V11.728C72.3584 11.376 72.2624 11.2 72.0704 11.2L69.1424 11.104L69.1904 10.432C71.2064 10.144 72.5824 10 73.3184 10C74.0864 10 74.6304 10.208 74.9504 10.624C75.3024 11.04 75.4784 11.488 75.4784 11.968ZM66.7424 45.328C68.6944 45.328 70.5664 44.896 72.3584 44.032V23.968C70.9504 23.104 69.5584 22.672 68.1824 22.672C65.4304 22.672 63.2064 23.728 61.5104 25.84C59.8464 27.952 59.0144 30.976 59.0144 34.912C59.0144 41.856 61.5904 45.328 66.7424 45.328Z" fill="#3C4943"/>
</svg>
